<?xml version="1.0" encoding="UTF-8" standalone="no"?>
<!-- Created with Inkscape (http://www.inkscape.org/) -->

<svg
   width="114.99998mm"
   height="25mm"
   viewBox="0 0 114.99998 25"
   version="1.1"
   id="svg1"
   inkscape:version="1.4.2 (ebf0e940, 2025-05-08)"
   sodipodi:docname="icons_sketching.svg"
   xml:space="preserve"
   inkscape:export-filename="wrench.svg"
   inkscape:export-xdpi="96"
   inkscape:export-ydpi="96"
   xmlns:inkscape="http://www.inkscape.org/namespaces/inkscape"
   xmlns:sodipodi="http://sodipodi.sourceforge.net/DTD/sodipodi-0.dtd"
   xmlns:xlink="http://www.w3.org/1999/xlink"
   xmlns="http://www.w3.org/2000/svg"
   xmlns:svg="http://www.w3.org/2000/svg"><sodipodi:namedview
     id="namedview1"
     pagecolor="#ffffff"
     bordercolor="#cccccc"
     borderopacity="1"
     inkscape:showpageshadow="0"
     inkscape:pageopacity="1"
     inkscape:pagecheckerboard="0"
     inkscape:deskcolor="#c0e2c3"
     inkscape:document-units="mm"
     inkscape:zoom="5.118746"
     inkscape:cx="365.42153"
     inkscape:cy="159.31636"
     inkscape:window-width="1920"
     inkscape:window-height="948"
     inkscape:window-x="0"
     inkscape:window-y="30"
     inkscape:window-maximized="1"
     inkscape:current-layer="layer1"
     showgrid="false"><inkscape:grid
       id="grid3"
       units="mm"
       originx="50"
       originy="-15.000004"
       spacingx="0.99999999"
       spacingy="0.99999998"
       empcolor="#0099e5"
       empopacity="0.30196078"
       color="#0099e5"
       opacity="0.14901961"
       empspacing="5"
       enabled="true"
       visible="false" /></sodipodi:namedview><defs
     id="defs1"><marker
       style="overflow:visible"
       id="marker1"
       refX="0"
       refY="0"
       orient="auto"
       inkscape:stockid="Dot"
       markerWidth="0.5"
       markerHeight="0.5"
       viewBox="0 0 1 1"
       inkscape:isstock="true"
       inkscape:collect="always"
       preserveAspectRatio="xMidYMid"><path
         transform="scale(0.5)"
         style="fill:context-stroke;fill-rule:evenodd;stroke:none"
         d="M 5,0 C 5,2.76 2.76,5 0,5 -2.76,5 -5,2.76 -5,0 c 0,-2.76 2.3,-5 5,-5 2.76,0 5,2.24 5,5 z"
         sodipodi:nodetypes="sssss"
         id="path1" /></marker><marker
       style="overflow:visible"
       id="Dot"
       refX="0"
       refY="0"
       orient="auto"
       inkscape:stockid="Dot"
       markerWidth="0.5"
       markerHeight="0.5"
       viewBox="0 0 1 1"
       inkscape:isstock="true"
       inkscape:collect="always"
       preserveAspectRatio="xMidYMid"><path
         transform="scale(0.5)"
         style="fill:context-stroke;fill-rule:evenodd;stroke:none"
         d="M 5,0 C 5,2.76 2.76,5 0,5 -2.76,5 -5,2.76 -5,0 c 0,-2.76 2.3,-5 5,-5 2.76,0 5,2.24 5,5 z"
         sodipodi:nodetypes="sssss"
         id="path17" /></marker><marker
       style="overflow:visible"
       id="Triangle"
       refX="0"
       refY="0"
       orient="auto-start-reverse"
       inkscape:stockid="Triangle arrow"
       markerWidth="0.5"
       markerHeight="0.5"
       viewBox="0 0 1 1"
       inkscape:isstock="true"
       inkscape:collect="always"
       preserveAspectRatio="xMidYMid"><path
         transform="scale(0.5)"
         style="fill:context-stroke;fill-rule:evenodd;stroke:context-stroke;stroke-width:1pt"
         d="M 5.77,0 -2.88,5 V -5 Z"
         id="path135" /></marker><inkscape:path-effect
       effect="offset"
       id="path-effect16"
       is_visible="true"
       lpeversion="1.3"
       linejoin_type="miter"
       unit="mm"
       offset="0.5"
       miter_limit="4"
       attempt_force_join="false"
       update_on_knot_move="true" /><inkscape:path-effect
       effect="fillet_chamfer"
       id="path-effect15"
       is_visible="true"
       lpeversion="1"
       nodesatellites_param="F,0,0,1,0,0,0,1 @ F,0,0,1,0,2.8189799,0,1 @ F,0,0,1,0,2.9569721,0,1 @ F,0,0,1,0,0,0,1"
       radius="0"
       unit="px"
       method="auto"
       mode="F"
       chamfer_steps="1"
       flexible="false"
       use_knot_distance="true"
       apply_no_radius="true"
       apply_with_radius="true"
       only_selected="false"
       hide_knots="false" /><inkscape:path-effect
       effect="fillet_chamfer"
       id="path-effect13"
       is_visible="true"
       lpeversion="1"
       nodesatellites_param="F,0,0,1,0,0.54995859,0,1 @ F,0,0,1,0,0,0,1 @ F,0,0,1,0,0,0,1 @ F,0,0,1,0,0,0,1 @ F,0,0,1,0,0,0,1 @ F,0,0,1,0,0,0,1 @ F,0,0,1,0,0,0,1 @ F,0,0,1,0,0,0,1 @ F,0,0,1,0,0.93582699,0,1 @ F,0,0,1,0,0,0,1 @ F,0,0,1,0,0,0,1 @ F,0,0,1,0,0,0,1"
       radius="0"
       unit="px"
       method="auto"
       mode="F"
       chamfer_steps="1"
       flexible="false"
       use_knot_distance="true"
       apply_no_radius="true"
       apply_with_radius="true"
       only_selected="false"
       hide_knots="false" /><inkscape:path-effect
       effect="fillet_chamfer"
       id="path-effect10"
       is_visible="true"
       lpeversion="1"
       nodesatellites_param="F,0,0,1,0,0,0,1 @ F,0,0,1,0,2.8189799,0,1 @ F,0,0,1,0,2.9569721,0,1 @ F,0,0,1,0,0,0,1"
       radius="0"
       unit="px"
       method="auto"
       mode="F"
       chamfer_steps="1"
       flexible="false"
       use_knot_distance="true"
       apply_no_radius="true"
       apply_with_radius="true"
       only_selected="false"
       hide_knots="false" /><inkscape:path-effect
       effect="fillet_chamfer"
       id="path-effect19"
       is_visible="true"
       lpeversion="1"
       nodesatellites_param="F,0,0,1,0,0.54995859,0,1 @ F,0,0,1,0,0,0,1 @ F,0,0,1,0,0,0,1 @ F,0,0,1,0,0,0,1 @ F,0,0,1,0,0,0,1 @ F,0,0,1,0,0,0,1 @ F,0,0,1,0,0,0,1 @ F,0,0,1,0,0,0,1 @ F,0,0,1,0,0.93582699,0,1 @ F,0,0,1,0,0,0,1 @ F,0,0,1,0,0,0,1 @ F,0,0,1,0,0,0,1"
       radius="0"
       unit="px"
       method="auto"
       mode="F"
       chamfer_steps="1"
       flexible="false"
       use_knot_distance="true"
       apply_no_radius="true"
       apply_with_radius="true"
       only_selected="false"
       hide_knots="false" /><inkscape:path-effect
       effect="fillet_chamfer"
       id="path-effect18"
       is_visible="true"
       lpeversion="1"
       nodesatellites_param="F,0,0,1,0,0,0,1 @ F,0,0,1,0,0,0,1 @ F,0,0,1,0,0,0,1 @ F,0,0,1,0,0,0,1 @ F,0,0,1,0,0,0,1 @ F,0,0,1,0,0,0,1 @ F,0,0,1,0,0,0,1 @ F,0,0,1,0,0,0,1 @ F,0,0,1,0,1.9806185,0,1 @ F,0,0,1,0,0,0,1 @ F,0,0,1,0,0,0,1 @ F,0,0,1,0,0.41782471,0,1 @ F,0,0,1,0,0,0,1"
       radius="0"
       unit="px"
       method="auto"
       mode="F"
       chamfer_steps="1"
       flexible="false"
       use_knot_distance="true"
       apply_no_radius="true"
       apply_with_radius="true"
       only_selected="false"
       hide_knots="false" /><inkscape:path-effect
       effect="fillet_chamfer"
       id="path-effect17"
       is_visible="true"
       lpeversion="1"
       nodesatellites_param="F,0,0,1,0,0,0,1 @ F,0,0,1,0,0,0,1 @ F,0,0,1,0,0,0,1 @ F,0,0,1,0,0,0,1 @ F,0,0,1,0,0,0,1 @ F,0,0,1,0,0,0,1 @ F,0,0,1,0,0,0,1 @ F,0,0,1,0,0,0,1 @ F,0,0,1,0,0,0,1 @ F,0,0,1,0,0,0,1 @ F,0,0,1,0,0,0,1 @ F,0,0,1,0,0,0,1 @ F,0,0,1,0,0,0,1"
       radius="0"
       unit="px"
       method="auto"
       mode="F"
       chamfer_steps="1"
       flexible="false"
       use_knot_distance="true"
       apply_no_radius="true"
       apply_with_radius="true"
       only_selected="false"
       hide_knots="false" /><marker
       style="overflow:visible"
       id="Triangle-3"
       refX="0"
       refY="0"
       orient="auto-start-reverse"
       inkscape:stockid="Triangle arrow"
       markerWidth="0.5"
       markerHeight="0.5"
       viewBox="0 0 1 1"
       inkscape:isstock="true"
       inkscape:collect="always"
       preserveAspectRatio="xMidYMid"><path
         transform="scale(0.5)"
         style="fill:context-stroke;fill-rule:evenodd;stroke:context-stroke;stroke-width:1pt"
         d="M 5.77,0 -2.88,5 V -5 Z"
         id="path135-8" /></marker><inkscape:path-effect
       effect="offset"
       id="path-effect16-1"
       is_visible="true"
       lpeversion="1.3"
       linejoin_type="miter"
       unit="mm"
       offset="0.5"
       miter_limit="4"
       attempt_force_join="false"
       update_on_knot_move="true" /><clipPath
       clipPathUnits="userSpaceOnUse"
       id="clipPath8"><path
         style="fill:#000000;stroke:none;stroke-width:0.352777;stroke-linejoin:round;paint-order:fill markers stroke"
         d="m 56.573672,248.31495 h 19.999997 l -8e-6,-7.83187 -19.999989,0.83187 z"
         id="path8" /></clipPath></defs><g
     inkscape:label="Layer 1"
     inkscape:groupmode="layer"
     id="layer1"
     transform="translate(-21.573673,-183.31495)"><path
       style="fill:#cccccc;stroke:none;stroke-width:1;stroke-linecap:round;stroke-dasharray:none"
       d="m 111.57367,208.31495 h 24.99999 v -25 h -24.99999 z"
       id="path4-1" /><path
       style="fill:#cccccc;stroke:none;stroke-width:1;stroke-linecap:round;stroke-dasharray:none"
       d="m 111.57367,238.31495 h 24.99999 v -25 h -24.99999 z"
       id="path4-1-7" /><path
       style="fill:#cccccc;stroke:none;stroke-width:1;stroke-linecap:round;stroke-dasharray:none"
       d="m 51.573674,208.31495 h 24.999987 v -25 H 51.573674 Z"
       id="path4-1-1" /><path
       style="fill:#cccccc;stroke:none;stroke-width:1;stroke-linecap:round;stroke-dasharray:none"
       d="M 21.573673,208.31495 H 46.57366 v -25 H 21.573673 Z"
       id="path4-1-1-6" /><path
       style="fill:#cccccc;stroke:none;stroke-width:1;stroke-linecap:round;stroke-dasharray:none"
       d="m 81.573674,208.31495 h 24.999996 v -25 H 81.573674 Z"
       id="path4-2" /><path
       style="fill:#000000;stroke-width:0.0320413"
       d="m 71.573674,194.83756 h 9.45318"
       id="path2" /><path
       style="fill:#000000;stroke:#000000;stroke-width:0.993157;stroke-linecap:round;stroke-dasharray:none"
       d="M 86.573674,204.31495 H 101.57367"
       id="path3"
       sodipodi:nodetypes="cc" /><path
       style="fill:#000000;stroke:#000000;stroke-width:1;stroke-linecap:round;stroke-linejoin:round;stroke-dasharray:none"
       d="m 86.573674,202.31495 1,-3 2,2 z"
       id="path5"
       sodipodi:nodetypes="cccc" /><path
       style="fill:#000000;stroke:#000000;stroke-width:1;stroke-linecap:round;stroke-linejoin:round;stroke-dasharray:none"
       d="m 88.573674,198.31495 2,2 9,-9 -2,-2 z"
       id="path6"
       sodipodi:nodetypes="ccccc" /><g
       id="g18"><path
         style="fill:#f9f9f9;stroke:#000000;stroke-width:1;stroke-linecap:round;stroke-linejoin:round;stroke-dasharray:none;stroke-dashoffset:0;stroke-opacity:1"
         d="m 23.226964,201.92102 2.310809,-10 h 10.185125 l -2.639361,10 z"
         id="path9" /><path
         style="fill:#b3b3b3;stroke:#000000;stroke-width:1.09545;stroke-linecap:round;stroke-linejoin:round;stroke-dasharray:none;stroke-dashoffset:0;stroke-opacity:1"
         d="m 37.944388,203.92102 -1.814874,-12 H 25.944389 l 2.143426,12 z"
         id="path9-8" /><g
         id="g17"
         transform="translate(26.949312,-1.8585732)"><g
           id="g16"
           transform="matrix(0.37032505,-0.28986836,0.28986836,0.37032505,-46.443094,126.2839)"
           inkscape:path-effect="#path-effect16"
           style="fill:#ffffff"><path
             d="m 9.3874476,181.36208 c -0.77414,-3.2e-4 -1.134609,0.63967 -1.134609,1.17288 v 1.72984 l 0.011477,0.008 v 1.30165 L 6.585357,186.54384 4.9063981,185.5742 v -2.17045 l -0.011477,-0.008 v -0.47474 c 0,-1.20117 -1.2393478,-1.87517 -2.2495426,-1.05031 -1.4431034,1.17833 -2.29068964,2.95399 -2.29053277,4.83734 1.5292e-4,3.41173 2.75466597,6.23664 6.21903427,6.23673 3.4646462,2.5e-4 6.2188832,-2.82516 6.2190342,-6.23828 -0.0047,-3.04203 -1.205163,-4.14356 -2.675841,-5.11505 -0.1756015,-0.11599 -0.4313174,-0.22949 -0.7296254,-0.22961 z"
             style="fill:#ffffff;stroke-width:2.134;stroke-linecap:round;stroke-linejoin:round"
             id="path15"
             transform="matrix(1.1912144,0,0,1.2589229,-3.9305096,-52.438062)"
             sodipodi:nodetypes="ccccccccccccc"
             inkscape:original-d="m 9.1444101,182.53458 v 1.29592 l 0.012402,0.007 v 2.21197 L 6.58591,187.53386 4.0150075,186.04971 v -2.21197 l -0.012402,-0.007 v -0.91005 c 0,-0.51685 -0.3732014,-0.73699 -0.7730247,-0.41052 -1.240926,1.01325 -1.9824999,2.55123 -1.9823627,4.19844 1.335e-4,2.97843 2.3847318,5.39287 5.3262899,5.39295 2.9417597,2.1e-4 5.326673,-2.41432 5.326806,-5.39295 -0.0041,-2.66968 -0.973552,-3.55279 -2.2943555,-4.42528 -0.2533489,-0.16735 -0.4615484,-0.0525 -0.4615484,0.25125 z" /><path
             style="fill:#ffffff;stroke-width:0.391324"
             d="m 0.42842568,188.13266 0,29.09168 c -7e-8,2.14812 1.73404942,3.88217 3.88217382,3.88217 h 0.058164 l 0.057816,-0.006 c 2.0587174,-0.22593 3.5389421,-2.07108 3.3130178,-4.1298 l 0.00634,0.11598 v -29.24117"
             id="path16"
             transform="translate(-0.26284195,-3.8112082)"
             inkscape:original-d="m 1.4916196,188.13266 v 29.09168 a 2.8189799,2.8189799 45 0 0 2.8189799,2.81898 2.6805571,2.6805571 128.73736 0 0 2.3721485,-2.95697 v -29.24117" /></g><g
           id="g10"
           transform="matrix(0.37032505,-0.28986836,0.28986836,0.37032505,-46.423847,126.26068)"
           style="fill:#000000"><path
             d="m 9.1444101,182.53458 v 1.29592 l 0.012402,0.007 v 2.21197 L 6.58591,187.53386 4.0150075,186.04971 v -2.21197 l -0.012402,-0.007 v -0.91005 c 0,-0.51685 -0.3732014,-0.73699 -0.7730247,-0.41052 -1.240926,1.01325 -1.9824999,2.55123 -1.9823627,4.19844 1.335e-4,2.97843 2.3847318,5.39287 5.3262899,5.39295 2.9417597,2.1e-4 5.326673,-2.41432 5.326806,-5.39295 -0.0041,-2.66968 -0.973552,-3.55279 -2.2943555,-4.42528 -0.2533489,-0.16735 -0.4615484,-0.0525 -0.4615484,0.25125 z"
             style="fill:#000000;stroke-width:2.134;stroke-linecap:round;stroke-linejoin:round"
             id="path14"
             transform="matrix(1.1912144,0,0,1.2589229,-3.9305096,-52.438062)"
             sodipodi:nodetypes="ccccccccccccc" /><path
             style="fill:#000000;stroke-width:0.391324"
             d="m 1.4916196,188.13266 v 29.09168 a 2.8189799,2.8189799 45 0 0 2.8189799,2.81898 2.6805571,2.6805571 128.73736 0 0 2.3721485,-2.95697 v -29.24117"
             id="path10"
             transform="translate(-0.26284195,-3.8112082)" /></g></g></g><path
       style="fill:#cccccc;stroke:none;stroke-width:1;stroke-linecap:round;stroke-dasharray:none"
       d="M 21.582473,238.32887 H 46.58246 v -25 H 21.582473 Z"
       id="path4-1-1-6-4" /><path
       style="fill:#f9f9f9;stroke:#000000;stroke-width:1;stroke-linecap:round;stroke-linejoin:round;stroke-dasharray:none;stroke-dashoffset:0;stroke-opacity:1"
       d="m 23.235764,231.93494 2.310809,-10 h 10.185125 l -2.639361,10 z"
       id="path9-0" /><path
       style="fill:#b3b3b3;stroke:#000000;stroke-width:1.09545;stroke-linecap:round;stroke-linejoin:round;stroke-dasharray:none;stroke-dashoffset:0;stroke-opacity:1"
       d="m 37.953188,233.93494 -1.814874,-12 H 25.953189 l 2.143426,12 z"
       id="path9-8-4" /><path
       style="fill:#000000;stroke:#000000;stroke-width:1;stroke-linecap:round;stroke-linejoin:round;stroke-dasharray:none"
       d="M 55.573674,204.31495 H 70.573673"
       id="path19" /><path
       style="fill:none;stroke:#000000;stroke-width:1;stroke-linecap:round;stroke-linejoin:round;stroke-dasharray:none"
       d="m 58.448269,204.31495 -3.874594,-4 12,-12 6,6 -10,10"
       id="path20"
       sodipodi:nodetypes="ccccc" /><path
       style="fill:#000000;stroke:#000000;stroke-width:1;stroke-linecap:round;stroke-linejoin:round;stroke-dasharray:none"
       d="m 63.573676,191.31495 5.999999,6 5,-5 -6.000001,-6 z"
       id="path21" /><path
       style="fill:#000000;stroke:#000000;stroke-width:1;stroke-linecap:round;stroke-linejoin:round;stroke-dasharray:none"
       d="m 98.546009,188.30103 2.027661,2.01392 2,-2 -2,-2 z"
       id="path22" /><path
       style="fill:#cccccc;stroke:none;stroke-width:1;stroke-linecap:round;stroke-dasharray:none"
       d="m 81.57367,238.31495 h 25 v -25 h -25 z"
       id="path4-2-0" /><path
       style="fill:#000000;stroke:#000000;stroke-width:0.993157;stroke-linecap:round;stroke-dasharray:none;marker-start:url(#Dot);marker-end:url(#marker1)"
       d="m 86.57367,234.84412 h 15"
       id="path3-2"
       sodipodi:nodetypes="cc" /><path
       style="fill:#000000;stroke:#000000;stroke-width:1;stroke-linecap:round;stroke-linejoin:round;stroke-dasharray:none"
       d="m 86.57367,231.78578 1,-3 2,2 z"
       id="path5-4"
       sodipodi:nodetypes="cccc" /><path
       style="fill:#000000;stroke:#000000;stroke-width:1;stroke-linecap:round;stroke-linejoin:round;stroke-dasharray:none"
       d="m 88.57367,227.78578 2,2 8.999997,-9 -1.999997,-2 z"
       id="path6-8"
       sodipodi:nodetypes="ccccc" /><path
       style="fill:#000000;stroke:#000000;stroke-width:1;stroke-linecap:round;stroke-linejoin:round;stroke-dasharray:none"
       d="m 98.54601,217.77186 2.02766,2.01392 2,-2 -2,-2 z"
       id="path22-3" /><path
       style="fill:#ff0000;stroke:#000000;stroke-width:1;stroke-linecap:round;stroke-linejoin:round;stroke-dasharray:none"
       d="m 114.51146,197.4992 v 8.02239 h 8.02238 v -8.02239 z"
       id="path23" /><path
       style="fill:#2a7fff;stroke:#000000;stroke-width:1;stroke-linecap:round;stroke-linejoin:round;stroke-dasharray:none"
       d="m 125.91734,186.24624 0.0547,7.8148 h 7.81478 v -7.8148 z"
       id="path24" /><path
       style="fill:#2a7fff;stroke:#000000;stroke-width:1;stroke-linecap:round;stroke-linejoin:round;stroke-dasharray:none"
       d="m 128.47808,188.81323 1.44334,2.88669 1.44335,-2.88669"
       id="path25" /><path
       style="fill:#ff0000;stroke:#000000;stroke-width:1;stroke-linecap:round;stroke-linejoin:round;stroke-dasharray:none"
       d="m 116.24512,203.34127 1.08761,-3.26283 1.08762,2.17522 1.08761,-2.17522 1.0876,3.26283"
       id="path26" /><path
       style="fill:none;stroke:#000000;stroke-width:1;stroke-linecap:round;stroke-linejoin:round;stroke-dasharray:none;marker-end:url(#Triangle)"
       d="m 125.79771,203.24535 c 3.05404,-0.0638 4.85914,-1.37806 4.75851,-4.60009"
       id="path27"
       sodipodi:nodetypes="cc" /><path
       style="fill:none;stroke:#000000;stroke-width:1;stroke-linecap:round;stroke-linejoin:round;stroke-dasharray:none;marker-end:url(#Triangle-3)"
       d="m 122.53384,188.33076 c -3.05119,0.14653 -4.82003,1.50916 -4.63218,4.72729"
       id="path27-9"
       sodipodi:nodetypes="cc" /><g
       id="g11"
       transform="translate(2.5000029,-4.0000039)"><path
         id="path4"
         clip-path="url(#clipPath8)"
         style="fill:none;stroke:#000000;stroke-width:1;stroke-linejoin:round;stroke-dasharray:none;paint-order:fill markers stroke"
         sodipodi:type="inkscape:offset"
         inkscape:radius="0"
         inkscape:original="M 66.574219 243.31445 A 4.9999995 5 0 0 0 61.574219 248.31445 A 4.9999995 5 0 0 0 66.574219 253.31445 A 4.9999995 5 0 0 0 71.574219 248.31445 A 4.9999995 5 0 0 0 66.574219 243.31445 z "
         d="m 66.574219,243.31445 a 4.9999995,5 0 0 0 -5,5 4.9999995,5 0 0 0 5,5 4.9999995,5 0 0 0 5,-5 4.9999995,5 0 0 0 -5,-5 z"
         transform="matrix(1.25,0,0,1.25,-25.393416,-82.07873)" /><path
         style="fill:#000000;stroke:#000000;stroke-width:1.25;stroke-linecap:round;stroke-linejoin:round;stroke-dasharray:none;paint-order:fill markers stroke"
         d="M 51.57367,228.31496 H 64.073671"
         id="path11" /></g><g
       id="g19"
       transform="matrix(1.1,0,0,1.1,-2.7658098,-13.271028)"
       style="fill:#ffffff;stroke:#ffffff"><ellipse
         style="fill:#ffffff;stroke:#ffffff;stroke-width:1;stroke-linejoin:round;stroke-dasharray:none;paint-order:fill markers stroke"
         id="ellipse18"
         cx="66.573669"
         cy="248.31494"
         rx="4.9999995"
         ry="5"
         clip-path="url(#clipPath8)"
         transform="matrix(1.25,0,0,1.25,-25.393416,-82.07873)" /><path
         style="fill:#ffffff;stroke:#ffffff;stroke-width:1.25;stroke-linecap:round;stroke-linejoin:round;stroke-dasharray:none;paint-order:fill markers stroke"
         d="M 51.57367,228.31496 H 64.073671"
         id="path18" /></g><path
       style="fill:#000000;stroke:#000000;stroke-width:1.25;stroke-linecap:round;stroke-linejoin:round;stroke-dasharray:none;paint-order:fill markers stroke"
       d="m 117.73272,216.43996 v 18.74999"
       id="path29" /><path
       style="fill:#000000;stroke:#000000;stroke-width:1.25;stroke-linecap:round;stroke-linejoin:round;stroke-dasharray:none;paint-order:fill markers stroke"
       d="m 123.98273,216.43996 v 18.74999"
       id="path30" /><path
       style="fill:#000000;stroke:#000000;stroke-width:1.25;stroke-linecap:round;stroke-linejoin:round;stroke-dasharray:none;paint-order:fill markers stroke"
       d="m 114.69867,225.84236 h 18.74999"
       id="path31" /><path
       style="fill:#000000;stroke:#000000;stroke-width:1.25;stroke-linecap:round;stroke-linejoin:round;stroke-dasharray:none;paint-order:fill markers stroke"
       d="m 114.69867,232.09236 h 18.74999"
       id="path32" /><path
       style="fill:#000000;stroke:#000000;stroke-width:1.25;stroke-linecap:round;stroke-linejoin:round;stroke-dasharray:none;paint-order:fill markers stroke"
       d="m 114.69867,219.59236 h 18.74999"
       id="path33" /><path
       style="fill:#000000;stroke:#000000;stroke-width:1.25;stroke-linecap:round;stroke-linejoin:round;stroke-dasharray:none;paint-order:fill markers stroke"
       d="m 130.23273,216.43996 v 18.74999"
       id="path34" /><g
       id="g52"
       transform="translate(2.3260092,0.0516891)"><path
         d="m 48.625064,240.13844 a 7.499999,7.96875 0 0 0 -7.530289,7.90391 v 1.54306 h 14.999601 l 5.17e-4,-1.48311 a 7.499999,7.96875 0 0 0 -7.469829,-7.96386 z m -0.03049,3.09387 a 3.7499995,3.75 0 0 1 1.874821,0.50229 3.7499995,3.75 0 0 1 1.875338,3.24735 h -3.750159 -3.750159 a 3.7499995,3.75 0 0 1 1.875338,-3.24735 3.7499995,3.75 0 0 1 1.874821,-0.50229 z"
         style="fill:#ffffff;stroke:#000000;stroke-width:0.1;stroke-linecap:round;stroke-linejoin:round;paint-order:fill markers stroke"
         id="path51" /><path
         style="fill:none;stroke:#000000;stroke-width:0.75;stroke-linecap:round;stroke-linejoin:round;stroke-dasharray:none;paint-order:fill markers stroke"
         id="path35"
         sodipodi:type="arc"
         sodipodi:cx="48.655087"
         sodipodi:cy="-247.0058"
         sodipodi:rx="3.7499995"
         sodipodi:ry="3.75"
         sodipodi:start="0"
         sodipodi:end="3.1415927"
         sodipodi:arc-type="slice"
         d="m 52.405086,-247.0058 a 3.7499995,3.75 0 0 1 -1.875,3.2476 3.7499995,3.75 0 0 1 -3.749999,0 3.7499995,3.75 0 0 1 -1.875,-3.2476 h 3.75 z"
         transform="scale(1,-1)" /><path
         style="fill:none;stroke:#000000;stroke-width:0.75;stroke-linecap:round;stroke-linejoin:round;stroke-dasharray:none;paint-order:fill markers stroke"
         id="path37"
         sodipodi:type="arc"
         sodipodi:cx="48.655125"
         sodipodi:cy="248.13074"
         sodipodi:rx="7.499999"
         sodipodi:ry="7.96875"
         sodipodi:start="3.1497288"
         sodipodi:end="6.2831853"
         sodipodi:open="true"
         sodipodi:arc-type="arc"
         d="m 41.155374,248.0659 a 7.499999,7.96875 0 0 1 7.530261,-7.90385 7.499999,7.96875 0 0 1 7.469489,7.96869" /><path
         style="fill:none;stroke:#000000;stroke-width:0.75;stroke-linecap:round;stroke-linejoin:round;stroke-dasharray:none;paint-order:fill markers stroke"
         d="m 41.155373,247.66903 -2.78e-4,1.9399 h 15 l 3.7e-5,-1.87507"
         id="path38" /><path
         style="fill:none;stroke:#000000;stroke-width:0.75;stroke-linecap:round;stroke-linejoin:round;stroke-dasharray:none;paint-order:fill markers stroke"
         d="m 41.155086,248.50581 1.463816,-7e-5"
         id="path44" /><path
         style="fill:none;stroke:#000000;stroke-width:0.75;stroke-linecap:round;stroke-linejoin:round;stroke-dasharray:none;paint-order:fill markers stroke"
         d="m 48.655086,240.25581 v 1.5"
         id="path45" /><path
         style="fill:none;stroke:#000000;stroke-width:0.75;stroke-linecap:round;stroke-linejoin:round;stroke-dasharray:none;paint-order:fill markers stroke"
         d="M 56.155085,248.50581 H 54.655086"
         id="path46" /><path
         style="fill:none;stroke:#000000;stroke-width:0.75;stroke-linecap:round;stroke-linejoin:round;stroke-dasharray:none;paint-order:fill markers stroke"
         d="m 54.280085,242.88102 -1.107455,1.12477"
         id="path47" /><path
         style="fill:none;stroke:#000000;stroke-width:0.75;stroke-linecap:round;stroke-linejoin:round;stroke-dasharray:none;paint-order:fill markers stroke"
         d="m 42.993902,242.88102 1.132676,1.12473"
         id="path48" /><path
         style="fill:none;stroke:#000000;stroke-width:0.75;stroke-linecap:round;stroke-linejoin:round;stroke-dasharray:none;paint-order:fill markers stroke"
         d="m 45.49835,240.92464 0.659036,1.53129"
         id="path49" /><path
         style="fill:none;stroke:#000000;stroke-width:0.75;stroke-linecap:round;stroke-linejoin:round;stroke-dasharray:none;paint-order:fill markers stroke"
         d="m 41.524751,245.65419 1.492523,0.63966"
         id="path50" /><path
         style="fill:none;stroke:#000000;stroke-width:0.75;stroke-linecap:round;stroke-linejoin:round;stroke-dasharray:none;paint-order:fill markers stroke"
         d="m 51.791821,240.92599 -0.659037,1.53129"
         id="path49-2" /><path
         style="fill:none;stroke:#000000;stroke-width:0.75;stroke-linecap:round;stroke-linejoin:round;stroke-dasharray:none;paint-order:fill markers stroke"
         d="m 55.765419,245.65554 -1.492522,0.63966"
         id="path50-0" /></g><path
       style="fill:#ffe680;stroke:#000000;stroke-width:0.1;stroke-linecap:round;stroke-linejoin:round;stroke-dasharray:none;paint-order:fill markers stroke"
       sodipodi:type="inkscape:offset"
       inkscape:radius="1.324896"
       inkscape:original="M 75.703125 244.61914 A 2.8428998 1.8866519 0 0 0 72.849609 246.49023 L 78.535156 246.50391 A 2.8428998 1.8866519 0 0 0 75.703125 244.61914 z "
       xlink:href="#path52"
       id="path53"
       inkscape:href="#path52"
       d="m 75.707031,243.29492 c -0.971677,-0.002 -1.945082,0.24161 -2.738281,0.76172 -0.793199,0.52011 -1.430772,1.40438 -1.443359,2.41797 a 1.3250285,1.3250285 0 0 0 1.320312,1.33984 l 5.685547,0.0137 a 1.3250285,1.3250285 0 0 0 1.328125,-1.32617 c -0.0015,-1.01347 -0.630449,-1.90623 -1.419922,-2.43164 -0.789473,-0.52541 -1.760955,-0.77292 -2.732422,-0.77539 z" /><path
       style="fill:#ffe680;stroke:#000000;stroke-width:0.1;stroke-linecap:round;stroke-linejoin:round;stroke-dasharray:none;paint-order:fill markers stroke"
       id="path52"
       sodipodi:type="arc"
       sodipodi:cx="75.692154"
       sodipodi:cy="246.50487"
       sodipodi:rx="2.8428998"
       sodipodi:ry="1.8866519"
       sodipodi:start="3.1497288"
       sodipodi:end="6.2831853"
       sodipodi:open="true"
       sodipodi:arc-type="arc"
       d="m 72.849348,246.48952 a 2.8428998,1.8866519 0 0 1 2.854371,-1.87129 2.8428998,1.8866519 0 0 1 2.831335,1.88664" /></g></svg>
