<?xml version="1.0" encoding="UTF-8" standalone="no"?>
<!-- Created with Inkscape (http://www.inkscape.org/) -->

<svg
   width="24.999994mm"
   height="25mm"
   viewBox="0 0 24.999994 25"
   version="1.1"
   id="svg1"
   inkscape:version="1.4.2 (ebf0e940, 2025-05-08)"
   sodipodi:docname="icons.svg"
   xml:space="preserve"
   inkscape:export-filename="pencil.svg"
   inkscape:export-xdpi="96"
   inkscape:export-ydpi="96"
   xmlns:inkscape="http://www.inkscape.org/namespaces/inkscape"
   xmlns:sodipodi="http://sodipodi.sourceforge.net/DTD/sodipodi-0.dtd"
   xmlns="http://www.w3.org/2000/svg"
   xmlns:svg="http://www.w3.org/2000/svg"><sodipodi:namedview
     id="namedview1"
     pagecolor="#ffffff"
     bordercolor="#cccccc"
     borderopacity="1"
     inkscape:showpageshadow="0"
     inkscape:pageopacity="1"
     inkscape:pagecheckerboard="0"
     inkscape:deskcolor="#c0e2c3"
     inkscape:document-units="mm"
     inkscape:zoom="2.0132505"
     inkscape:cx="308.45641"
     inkscape:cy="130.88287"
     inkscape:window-width="1920"
     inkscape:window-height="948"
     inkscape:window-x="0"
     inkscape:window-y="30"
     inkscape:window-maximized="1"
     inkscape:current-layer="layer1"
     showgrid="true"><inkscape:grid
       id="grid3"
       units="mm"
       originx="49.898048"
       originy="-15.030614"
       spacingx="0.99999999"
       spacingy="0.99999998"
       empcolor="#0099e5"
       empopacity="0.30196078"
       color="#0099e5"
       opacity="0.14901961"
       empspacing="5"
       enabled="true"
       visible="true" /><inkscape:page
       x="0"
       y="0"
       width="24.999994"
       height="25"
       id="page2"
       margin="0"
       bleed="0" /></sodipodi:namedview><defs
     id="defs1"><inkscape:path-effect
       effect="offset"
       id="path-effect16"
       is_visible="true"
       lpeversion="1.3"
       linejoin_type="miter"
       unit="mm"
       offset="0.5"
       miter_limit="4"
       attempt_force_join="false"
       update_on_knot_move="true" /></defs><g
     inkscape:label="Layer 1"
     inkscape:groupmode="layer"
     id="layer1"
     transform="translate(-21.675625,-183.34556)"><g
       id="g18"><path
         style="fill:#f9f9f9;stroke:#000000;stroke-width:1;stroke-linecap:round;stroke-linejoin:round;stroke-dasharray:none;stroke-dashoffset:0;stroke-opacity:1"
         d="m 23.226964,201.92102 2.310809,-10 h 10.185125 l -2.639361,10 z"
         id="path9" /><path
         style="fill:#b3b3b3;stroke:#000000;stroke-width:1.09545;stroke-linecap:round;stroke-linejoin:round;stroke-dasharray:none;stroke-dashoffset:0;stroke-opacity:1"
         d="m 37.944388,203.92102 -1.814874,-12 H 25.944389 l 2.143426,12 z"
         id="path9-8" /><g
         id="g17"
         transform="translate(26.949312,-1.8585732)"><g
           id="g16"
           transform="matrix(0.37032505,-0.28986836,0.28986836,0.37032505,-46.443094,126.2839)"
           inkscape:path-effect="#path-effect16"
           style="fill:#ffffff"><path
             d="m 9.3874476,181.36208 c -0.77414,-3.2e-4 -1.134609,0.63967 -1.134609,1.17288 v 1.72984 l 0.011477,0.008 v 1.30165 L 6.585357,186.54384 4.9063981,185.5742 v -2.17045 l -0.011477,-0.008 v -0.47474 c 0,-1.20117 -1.2393478,-1.87517 -2.2495426,-1.05031 -1.4431034,1.17833 -2.29068964,2.95399 -2.29053277,4.83734 1.5292e-4,3.41173 2.75466597,6.23664 6.21903427,6.23673 3.4646462,2.5e-4 6.2188832,-2.82516 6.2190342,-6.23828 -0.0047,-3.04203 -1.205163,-4.14356 -2.675841,-5.11505 -0.1756015,-0.11599 -0.4313174,-0.22949 -0.7296254,-0.22961 z"
             style="fill:#ffffff;stroke-width:2.134;stroke-linecap:round;stroke-linejoin:round"
             id="path15"
             transform="matrix(1.1912144,0,0,1.2589229,-3.9305096,-52.438062)"
             sodipodi:nodetypes="ccccccccccccc"
             inkscape:original-d="m 9.1444101,182.53458 v 1.29592 l 0.012402,0.007 v 2.21197 L 6.58591,187.53386 4.0150075,186.04971 v -2.21197 l -0.012402,-0.007 v -0.91005 c 0,-0.51685 -0.3732014,-0.73699 -0.7730247,-0.41052 -1.240926,1.01325 -1.9824999,2.55123 -1.9823627,4.19844 1.335e-4,2.97843 2.3847318,5.39287 5.3262899,5.39295 2.9417597,2.1e-4 5.326673,-2.41432 5.326806,-5.39295 -0.0041,-2.66968 -0.973552,-3.55279 -2.2943555,-4.42528 -0.2533489,-0.16735 -0.4615484,-0.0525 -0.4615484,0.25125 z" /><path
             style="fill:#ffffff;stroke-width:0.391324"
             d="m 0.42842568,188.13266 0,29.09168 c -7e-8,2.14812 1.73404942,3.88217 3.88217382,3.88217 h 0.058164 l 0.057816,-0.006 c 2.0587174,-0.22593 3.5389421,-2.07108 3.3130178,-4.1298 l 0.00634,0.11598 v -29.24117"
             id="path16"
             transform="translate(-0.26284195,-3.8112082)"
             inkscape:original-d="m 1.4916196,188.13266 v 29.09168 a 2.8189799,2.8189799 45 0 0 2.8189799,2.81898 2.6805571,2.6805571 128.73736 0 0 2.3721485,-2.95697 v -29.24117" /></g><g
           id="g10"
           transform="matrix(0.37032505,-0.28986836,0.28986836,0.37032505,-46.423847,126.26068)"
           style="fill:#000000"><path
             d="m 9.1444101,182.53458 v 1.29592 l 0.012402,0.007 v 2.21197 L 6.58591,187.53386 4.0150075,186.04971 v -2.21197 l -0.012402,-0.007 v -0.91005 c 0,-0.51685 -0.3732014,-0.73699 -0.7730247,-0.41052 -1.240926,1.01325 -1.9824999,2.55123 -1.9823627,4.19844 1.335e-4,2.97843 2.3847318,5.39287 5.3262899,5.39295 2.9417597,2.1e-4 5.326673,-2.41432 5.326806,-5.39295 -0.0041,-2.66968 -0.973552,-3.55279 -2.2943555,-4.42528 -0.2533489,-0.16735 -0.4615484,-0.0525 -0.4615484,0.25125 z"
             style="fill:#000000;stroke-width:2.134;stroke-linecap:round;stroke-linejoin:round"
             id="path14"
             transform="matrix(1.1912144,0,0,1.2589229,-3.9305096,-52.438062)"
             sodipodi:nodetypes="ccccccccccccc" /><path
             style="fill:#000000;stroke-width:0.391324"
             d="m 1.4916196,188.13266 v 29.09168 a 2.8189799,2.8189799 45 0 0 2.8189799,2.81898 2.6805571,2.6805571 128.73736 0 0 2.3721485,-2.95697 v -29.24117"
             id="path10"
             transform="translate(-0.26284195,-3.8112082)" /></g></g></g></g></svg>
